<svg width="16" height="16" viewBox="0 0 16 16" fill="none" xmlns="http://www.w3.org/2000/svg">
<path d="M12.332 6.33366C12.332 3.94042 10.3919 2.00033 7.9987 2.00033C5.60546 2.00033 3.66536 3.94042 3.66536 6.33366C3.66536 8.72689 5.60546 10.667 7.9987 10.667C10.3919 10.667 12.332 8.72689 12.332 6.33366ZM10.6654 11.3337C9.87047 11.7585 8.96298 12.0003 7.9987 12.0003C7.03442 12.0003 6.12692 11.7585 5.33203 11.3337V13.682L7.55273 12.7939L7.66797 12.7497C7.71947 12.732 7.78169 12.7141 7.84701 12.7041L7.92253 12.6956C7.97324 12.6918 8.02416 12.6918 8.07487 12.6956L8.15039 12.7041L8.24544 12.7243C8.33594 12.7481 8.41112 12.7805 8.44466 12.7939L10.6654 13.682V11.3337ZM13.6654 6.33366C13.6654 7.90194 13.0282 9.32133 11.9987 10.3473V14.667C11.9987 14.8882 11.8889 15.0951 11.7057 15.2191C11.5226 15.343 11.29 15.3682 11.0846 15.2861L7.9987 14.0511L4.91276 15.2861C4.70744 15.3682 4.47477 15.343 4.29167 15.2191C4.10849 15.0951 3.9987 14.8882 3.9987 14.667V10.3473C2.96921 9.32133 2.33203 7.90194 2.33203 6.33366C2.33203 3.20405 4.86908 0.666992 7.9987 0.666992C11.1283 0.666992 13.6654 3.20405 13.6654 6.33366Z" fill="#5D6174"/>
</svg>
