<svg width="16" height="16" viewBox="0 0 16 16" fill="none" xmlns="http://www.w3.org/2000/svg">
<g clip-path="url(#clip0_12552_8557)">
<path d="M14.0013 10.1999C14.0013 10.132 13.991 10.0647 13.9714 10L13.9486 9.9362L13.4681 8.77539L13.4004 8.58659C13.2648 8.1406 13.2879 7.65934 13.4674 7.22591L13.9492 6.06315L13.972 5.99935C14.0179 5.84777 14.0103 5.68405 13.9492 5.53646C13.8881 5.38893 13.7775 5.26813 13.638 5.19336L13.5762 5.16406L12.4128 4.68164H12.4121C11.9399 4.48548 11.5626 4.11711 11.3509 3.65364C11.3492 3.65058 11.3473 3.64763 11.3457 3.64453L11.3197 3.58919L10.8379 2.42578C10.768 2.25713 10.6335 2.12324 10.4648 2.05338C10.2962 1.98359 10.1068 1.98358 9.93815 2.05338H9.9375L8.77344 2.53385L8.77279 2.5332C8.27816 2.73789 7.72265 2.73894 7.22786 2.5345L7.22721 2.53385L6.0651 2.05208C5.89643 1.98221 5.70644 1.98221 5.53776 2.05208C5.39024 2.1132 5.26943 2.22375 5.19466 2.36328L5.16536 2.42513L4.68359 3.58854L4.68294 3.58919C4.50295 4.02185 4.17921 4.37669 3.76953 4.5957L3.58919 4.68099L2.42643 5.16276C2.34294 5.19732 2.26705 5.24797 2.20312 5.31185C2.13919 5.37577 2.088 5.45163 2.05339 5.53515C2.01879 5.61867 2.00131 5.70843 2.0013 5.79883C2.00131 5.86665 2.01163 5.93403 2.03125 5.9987L2.05404 6.0625V6.06315L2.53451 7.22656L2.60221 7.41471C2.73717 7.85966 2.71487 8.33994 2.53581 8.77344V8.77409L2.05404 9.93685C1.98449 10.1054 1.98489 10.2945 2.05469 10.4629C2.12459 10.6315 2.25848 10.7654 2.42708 10.8353L3.59049 11.3177H3.59115L3.77148 11.4036C4.18106 11.6235 4.50436 11.9788 4.68359 12.4121L5.16602 13.5755H5.16536C5.23527 13.744 5.36927 13.8781 5.53776 13.9479C5.70627 14.0177 5.89589 14.0176 6.06445 13.9479L7.22721 13.4668L7.41536 13.3991C7.79682 13.2834 8.20432 13.2833 8.58594 13.3984L8.77409 13.4655L8.77474 13.4661L9.9375 13.9473L10.0013 13.9707C10.1529 14.0166 10.3166 14.0084 10.4642 13.9473C10.6328 13.8774 10.7667 13.7435 10.8366 13.5749L11.3184 12.4115L11.319 12.4108L11.4043 12.2305C11.624 11.8208 11.9795 11.497 12.4128 11.3177L13.5755 10.8366H13.5762L13.6374 10.8073C13.6969 10.7755 13.7516 10.7347 13.7995 10.6868C13.8634 10.6229 13.914 10.547 13.9486 10.4635C13.9832 10.38 14.0013 10.2903 14.0013 10.1999ZM9.86328 5.86198C10.1236 5.60163 10.5456 5.60163 10.806 5.86198C11.0663 6.12233 11.0663 6.54434 10.806 6.80469L7.80599 9.80469C7.54564 10.065 7.12363 10.065 6.86328 9.80469L5.52995 8.47135L5.48438 8.42057C5.27081 8.15872 5.28587 7.77272 5.52995 7.52864C5.77403 7.28457 6.16003 7.26951 6.42188 7.48307L6.47266 7.52864L7.33464 8.39062L9.86328 5.86198ZM15.3346 10.1999C15.3347 10.4655 15.282 10.7286 15.1803 10.974C15.0787 11.2193 14.93 11.4425 14.7422 11.6302C14.6014 11.771 14.4406 11.8896 14.2656 11.9831L14.0859 12.0684L12.9232 12.5501C12.7756 12.6112 12.6543 12.7212 12.5794 12.8607L12.5501 12.9219L12.0684 14.0853C11.8632 14.5805 11.4698 14.9738 10.9746 15.179C10.5411 15.3586 10.0605 15.3814 9.61523 15.2467L9.42708 15.179L8.26432 14.6979V14.6973C8.09583 14.6279 7.90661 14.6287 7.73828 14.6986H7.73763L6.57422 15.1797C6.07921 15.3844 5.5229 15.3846 5.028 15.1797C4.53308 14.9747 4.1396 14.5813 3.93424 14.0866V14.0859L3.45182 12.9219C3.38213 12.7533 3.24845 12.6189 3.08008 12.5488V12.5495L1.91667 12.0671C1.4216 11.862 1.0282 11.4689 0.822917 10.974C0.617651 10.4789 0.617495 9.92239 0.822266 9.42708V9.42643L1.30339 8.26367C1.36409 8.11632 1.37195 7.9533 1.32617 7.80208L1.30339 7.73763L1.30273 7.73698L0.821615 6.57226L0.822266 6.57161C0.720927 6.3267 0.668048 6.06453 0.667969 5.79948C0.667926 5.53397 0.720047 5.27071 0.821615 5.02539C0.923253 4.78 1.07258 4.55692 1.26042 4.36914C1.44825 4.18136 1.67126 4.03256 1.91667 3.93099L3.07878 3.44922H3.07943L3.14062 3.41992C3.28016 3.34539 3.39048 3.22479 3.45182 3.07747L3.93359 1.91471L4.01888 1.73372C4.23842 1.32379 4.59398 0.99987 5.02734 0.820312C5.52265 0.615141 6.07954 0.615206 6.57487 0.820312L7.73763 1.30208L7.73698 1.30273C7.90559 1.37235 8.09517 1.37132 8.26367 1.30143L8.26497 1.30078L9.42839 0.821614V0.820963C9.92365 0.61597 10.48 0.616482 10.9753 0.821614C11.4705 1.02678 11.8644 1.4201 12.0697 1.91536L12.5436 3.0612C12.5461 3.06668 12.5491 3.0719 12.5514 3.07747L12.5807 3.13932C12.6552 3.27851 12.7756 3.38855 12.9225 3.44987H12.9232L14.0866 3.93229L14.2676 4.01758C14.6775 4.23714 15.0015 4.59265 15.181 5.02604C15.3606 5.45956 15.3828 5.94019 15.248 6.38542L15.181 6.57357L14.6992 7.73633C14.638 7.88423 14.6306 8.04763 14.6764 8.19857L14.6992 8.26237L14.6999 8.26432L15.1803 9.42578L15.2474 9.61328C15.305 9.80311 15.3346 10.0008 15.3346 10.1999Z" fill="#5D6174"/>
</g>
<defs>
<clipPath id="clip0_12552_8557">
<rect width="16" height="16" fill="white"/>
</clipPath>
</defs>
</svg>
