<svg width="16" height="16" viewBox="0 0 16 16" fill="none" xmlns="http://www.w3.org/2000/svg">
<path d="M1.33203 12C1.33203 11.2636 1.92898 10.6667 2.66536 10.6667C3.40174 10.6667 3.9987 11.2636 3.9987 12C3.9987 12.7364 3.40174 13.3333 2.66536 13.3333C1.92898 13.3333 1.33203 12.7364 1.33203 12ZM13.9987 11.3333L14.0671 11.3366C14.4031 11.3708 14.6654 11.6549 14.6654 12C14.6654 12.3451 14.4031 12.6292 14.0671 12.6634L13.9987 12.6667H5.9987C5.63051 12.6667 5.33203 12.3682 5.33203 12C5.33203 11.6318 5.63051 11.3333 5.9987 11.3333H13.9987ZM1.33203 8.00001C1.33203 7.26363 1.92898 6.66667 2.66536 6.66667C3.40174 6.66667 3.9987 7.26363 3.9987 8.00001C3.9987 8.73638 3.40174 9.33334 2.66536 9.33334C1.92898 9.33334 1.33203 8.73638 1.33203 8.00001ZM13.9987 7.33334L14.0671 7.33659C14.4031 7.37081 14.6654 7.65489 14.6654 8.00001C14.6654 8.34512 14.4031 8.6292 14.0671 8.66342L13.9987 8.66667H5.9987C5.63051 8.66667 5.33203 8.3682 5.33203 8.00001C5.33203 7.63182 5.63051 7.33334 5.9987 7.33334H13.9987ZM1.33203 4.00001C1.33203 3.26363 1.92898 2.66667 2.66536 2.66667C3.40174 2.66667 3.9987 3.26363 3.9987 4.00001C3.9987 4.73638 3.40174 5.33334 2.66536 5.33334C1.92898 5.33334 1.33203 4.73638 1.33203 4.00001ZM13.9987 3.33334L14.0671 3.33659C14.4031 3.37081 14.6654 3.65489 14.6654 4.00001C14.6654 4.34512 14.4031 4.6292 14.0671 4.66342L13.9987 4.66667H5.9987C5.63051 4.66667 5.33203 4.36819 5.33203 4.00001C5.33203 3.63182 5.63051 3.33334 5.9987 3.33334H13.9987Z" fill="#5D6174"/>
</svg>
