<svg width="16" height="16" viewBox="0 0 16 16" fill="none" xmlns="http://www.w3.org/2000/svg">
<path d="M13.332 5.19987C13.332 4.62894 13.3318 4.24078 13.3073 3.94075C13.2894 3.72168 13.2603 3.58278 13.2246 3.48307L13.1869 3.39453C13.075 3.17504 12.9048 2.99137 12.696 2.86328L12.6042 2.81185C12.4999 2.75872 12.3502 2.71528 12.0579 2.6914C11.7579 2.6669 11.3698 2.66666 10.7988 2.66666H5.19857C4.62764 2.66666 4.23948 2.6669 3.93945 2.6914C3.72038 2.7093 3.58148 2.73841 3.48177 2.77408L3.39323 2.81185C3.17374 2.92369 2.99008 3.0939 2.86198 3.30273L2.81055 3.39453C2.75742 3.49879 2.71399 3.64847 2.69011 3.94075C2.6656 4.24078 2.66537 4.62894 2.66537 5.19987V9C2.66537 9.475 2.66583 9.79788 2.68294 10.0488C2.69966 10.2938 2.73006 10.4214 2.76693 10.5104L2.82357 10.6296C2.96835 10.8998 3.20255 11.1134 3.48828 11.2318L3.5638 11.2585C3.64863 11.2833 3.76631 11.3032 3.94987 11.3158C4.20082 11.3329 4.5237 11.3333 4.9987 11.3333C5.29243 11.3333 5.54727 11.329 5.79167 11.3867L5.90365 11.4167C6.16317 11.4941 6.40471 11.6235 6.61328 11.7975L6.68425 11.86C6.84437 12.0105 6.978 12.1942 7.13216 12.3997L7.9987 13.5553L8.86524 12.3997L9.11849 12.071C9.20195 11.97 9.28777 11.8779 9.38412 11.7975L9.47526 11.7259C9.69292 11.5648 9.94137 11.4491 10.2057 11.3867L10.2982 11.3678C10.5146 11.33 10.7417 11.3333 10.9987 11.3333C11.4737 11.3333 11.7966 11.3329 12.0475 11.3158C12.2925 11.299 12.4201 11.2686 12.5091 11.2318L12.6283 11.1751C12.8985 11.0303 13.1121 10.7961 13.2305 10.5104L13.2572 10.4349C13.282 10.3501 13.3019 10.2324 13.3145 10.0488C13.3316 9.79788 13.332 9.475 13.332 9V5.19987ZM4.9987 6C5.55098 6 5.9987 6.44771 5.9987 7C5.9987 7.55228 5.55098 8 4.9987 8C4.44641 8 3.9987 7.55228 3.9987 7C3.9987 6.44771 4.44641 6 4.9987 6ZM7.9987 6C8.55098 6 8.9987 6.44771 8.9987 7C8.9987 7.55228 8.55098 8 7.9987 8C7.44641 8 6.9987 7.55228 6.9987 7C6.9987 6.44771 7.44641 6 7.9987 6ZM10.9987 6C11.551 6 11.9987 6.44771 11.9987 7C11.9987 7.55228 11.551 8 10.9987 8C10.4464 8 9.9987 7.55228 9.9987 7C9.9987 6.44771 10.4464 6 10.9987 6ZM14.6654 9C14.6654 9.45682 14.6655 9.8331 14.6445 10.14C14.6259 10.4135 14.5889 10.6692 14.5026 10.9154L14.4622 11.0202C14.2085 11.6328 13.7365 12.1277 13.14 12.4102L13.0189 12.4635C12.7405 12.5788 12.4513 12.6245 12.1387 12.6458C11.8318 12.6668 11.4555 12.6667 10.9987 12.6667C10.7308 12.6667 10.6237 12.6689 10.5625 12.6758L10.5124 12.6842C10.4368 12.7021 10.3648 12.7331 10.3001 12.7754L10.2383 12.8216C10.2155 12.8407 10.1926 12.8637 10.1484 12.918L9.93229 13.1999L8.95899 14.498C8.89411 14.5845 8.81918 14.6851 8.7474 14.765C8.68206 14.8376 8.57856 14.9404 8.42839 15.0137L8.36133 15.043C8.15729 15.1223 7.93353 15.1325 7.72461 15.0729L7.63607 15.043C7.44902 14.9702 7.32465 14.848 7.25 14.765C7.21417 14.7251 7.17764 14.68 7.14193 14.6341L7.03841 14.498L6.06511 13.1999C5.90454 12.9858 5.83844 12.9015 5.79623 12.8568L5.75912 12.8216C5.69948 12.7718 5.63191 12.7327 5.55925 12.7064L5.48503 12.6842C5.42728 12.6706 5.35595 12.6667 4.9987 12.6667C4.54188 12.6667 4.16559 12.6668 3.85873 12.6458C3.58515 12.6271 3.32947 12.5902 3.08333 12.5039L2.97852 12.4635C2.3659 12.2098 1.87097 11.7378 1.58854 11.1413L1.53516 11.0202C1.41988 10.7418 1.37422 10.4526 1.35287 10.14C1.33193 9.8331 1.33203 9.45682 1.33203 9V5.19987C1.33203 4.65087 1.33135 4.19895 1.36133 3.83203C1.39195 3.45732 1.45755 3.1126 1.6224 2.78906L1.72526 2.60546C1.98146 2.18779 2.34878 1.84739 2.78776 1.62369L2.91016 1.5664C3.19798 1.44294 3.50283 1.38942 3.83073 1.36263C4.19765 1.33265 4.64958 1.33333 5.19857 1.33333H10.7988C11.3478 1.33333 11.7997 1.33265 12.1667 1.36263C12.5414 1.39325 12.8861 1.45884 13.2096 1.62369L13.3932 1.72656C13.8109 1.98275 14.1513 2.35008 14.375 2.78906L14.4323 2.91145C14.5558 3.19928 14.6093 3.50413 14.6361 3.83203C14.666 4.19895 14.6654 4.65087 14.6654 5.19987V9Z" fill="#5D6174"/>
</svg>
