<svg width="16" height="16" viewBox="0 0 16 16" fill="none" xmlns="http://www.w3.org/2000/svg">
<g clip-path="url(#clip0_12984_18608)">
<path d="M8.66797 2.97754C8.66796 2.46328 8.27065 2.04283 7.76628 2.00423L5.45312 7.20866C5.41997 7.28323 5.37963 7.35311 5.33464 7.41894V14.0003H11.6185C12.2766 14.0003 12.8368 13.5199 12.9368 12.8695L13.6543 8.2028L13.6693 8.05241C13.6998 7.30701 13.1026 6.66699 12.3366 6.66699H10.0013C9.26492 6.66699 8.66797 6.07004 8.66797 5.33366V2.97754ZM2.0013 13.3337C2.0013 13.7018 2.29978 14.0003 2.66797 14.0003H4.0013V8.00033H2.66797C2.29978 8.00033 2.0013 8.2988 2.0013 8.66699V13.3337ZM10.0013 5.33366H12.3366C13.9199 5.33366 15.1426 6.70084 14.9915 8.25488L14.9727 8.40592L14.2546 13.0726C14.0544 14.3734 12.9346 15.3337 11.6185 15.3337H2.66797C1.5634 15.3337 0.667969 14.4382 0.667969 13.3337V8.66699C0.667969 7.56242 1.5634 6.66699 2.66797 6.66699H4.23503L6.58073 1.38835L6.61979 1.30762C6.82999 0.915197 7.24079 0.666992 7.69075 0.666992L7.8099 0.670247C9.0306 0.732263 10.0013 1.74142 10.0013 2.97754V5.33366Z" fill="#5D6174"/>
</g>
<defs>
<clipPath id="clip0_12984_18608">
<rect width="16" height="16" fill="white"/>
</clipPath>
</defs>
</svg>
