<svg width="16" height="16" viewBox="0 0 16 16" fill="none" xmlns="http://www.w3.org/2000/svg">
<path d="M10.668 14C10.668 13.3698 10.6673 12.9305 10.6439 12.5866C10.6266 12.333 10.5981 12.1587 10.5586 12.0241L10.5156 11.901C10.338 11.4723 10.0176 11.1208 9.61198 10.9036L9.4336 10.819C9.28334 10.7568 9.08599 10.7138 8.74805 10.6908C8.40416 10.6673 7.96485 10.6667 7.33464 10.6667H5.33464C4.70442 10.6667 4.26511 10.6673 3.92123 10.6908C3.66767 10.7081 3.49333 10.7365 3.35873 10.776L3.23568 10.819C2.80694 10.9967 2.45544 11.3171 2.23828 11.7227L2.15365 11.901C2.09141 12.0513 2.04845 12.2486 2.02539 12.5866C2.00194 12.9305 2.0013 13.3698 2.0013 14C2.0013 14.3682 1.70283 14.6667 1.33464 14.6667C0.966447 14.6667 0.66797 14.3682 0.66797 14C0.66797 13.3879 0.667382 12.8953 0.694662 12.4954C0.722351 12.0897 0.781174 11.731 0.921876 11.3913L0.988933 11.2402C1.34196 10.4946 1.96014 9.90443 2.72591 9.58723L2.85417 9.53776C3.15597 9.43196 3.47508 9.38425 3.83008 9.36002C4.22992 9.33274 4.7225 9.33333 5.33464 9.33333H7.33464C7.94677 9.33333 8.43935 9.33274 8.83919 9.36002C9.24494 9.38771 9.60362 9.44653 9.94336 9.58723L10.0944 9.65429C10.84 10.0073 11.4302 10.6255 11.7474 11.3913L11.7969 11.5195C11.9027 11.8213 11.9504 12.1404 11.9746 12.4954C12.0019 12.8953 12.0013 13.3879 12.0013 14C12.0013 14.3682 11.7028 14.6667 11.3346 14.6667C10.9664 14.6667 10.668 14.3682 10.668 14ZM14.0013 14V12.6667C14.0013 11.7939 13.4416 11.0505 12.6608 10.778L12.502 10.7298L12.4369 10.7096C12.1197 10.5929 11.9362 10.2523 12.0221 9.91796C12.1082 9.58359 12.4334 9.37359 12.7676 9.42447L12.834 9.43815L12.9681 9.47591C14.3372 9.89036 15.3346 11.1612 15.3346 12.6667V14C15.3346 14.3682 15.0362 14.6667 14.668 14.6667C14.2998 14.6667 14.0013 14.3682 14.0013 14ZM8.33464 4.66666C8.33464 3.56209 7.43921 2.66666 6.33464 2.66666C5.23007 2.66666 4.33464 3.56209 4.33464 4.66666C4.33464 5.77123 5.23007 6.66666 6.33464 6.66666C7.43921 6.66666 8.33464 5.77123 8.33464 4.66666ZM11.3346 4.66666C11.3346 3.88072 10.8811 3.19935 10.2194 2.87239L10.0846 2.81184L10.0228 2.7832C9.72391 2.62551 9.58741 2.26398 9.7168 1.94401C9.8463 1.62409 10.1958 1.45898 10.5202 1.55338L10.5846 1.57617L10.8092 1.67643C11.9096 2.22006 12.668 3.35416 12.668 4.66666C12.668 6.06662 11.805 7.26316 10.5846 7.75716C10.2434 7.89529 9.85495 7.7306 9.7168 7.38932C9.57881 7.04808 9.74342 6.6596 10.0846 6.52148L10.2194 6.46093C10.8811 6.13397 11.3346 5.4526 11.3346 4.66666ZM9.66797 4.66666C9.66797 6.50761 8.17559 8 6.33464 8C4.49369 8 3.0013 6.50761 3.0013 4.66666C3.0013 2.82571 4.49369 1.33333 6.33464 1.33333C8.17559 1.33333 9.66797 2.82571 9.66797 4.66666Z" fill="#5D6174"/>
</svg>
