<svg width="194" height="31" viewBox="0 0 194 31" fill="none" xmlns="http://www.w3.org/2000/svg">
<g clip-path="url(#clip0_52_12)">
<circle cx="12" cy="15.5" r="12" fill="#14181B"/>
<path d="M38.6055 24V7.08984H41.6172V14.1211H49.8438V7.08984H52.8555V24H49.8438V16.6641H41.6172V24H38.6055ZM55.832 24V11.5078H58.75V24H55.832ZM57.2969 9.65625C56.8359 9.65625 56.4453 9.5 56.125 9.1875C55.8047 8.86719 55.6445 8.48438 55.6445 8.03906C55.6445 7.59375 55.8047 7.21484 56.125 6.90234C56.4453 6.58203 56.8359 6.42188 57.2969 6.42188C57.7578 6.42188 58.1445 6.58203 58.457 6.90234C58.7773 7.21484 58.9375 7.59375 58.9375 8.03906C58.9375 8.48438 58.7773 8.86719 58.457 9.1875C58.1445 9.5 57.7578 9.65625 57.2969 9.65625ZM61.4336 24V11.5078H64.3398V13.6172H64.4336C64.6289 12.8828 64.9805 12.3086 65.4883 11.8945C65.9961 11.4727 66.6211 11.2617 67.3633 11.2617C67.5586 11.2617 67.7383 11.2734 67.9023 11.2969C68.0742 11.3203 68.2188 11.3477 68.3359 11.3789V14.0156C68.1953 13.9609 68.0156 13.9219 67.7969 13.8984C67.5859 13.8672 67.3555 13.8516 67.1055 13.8516C66.5352 13.8516 66.043 13.9648 65.6289 14.1914C65.2148 14.418 64.8945 14.75 64.668 15.1875C64.4492 15.6172 64.3398 16.1367 64.3398 16.7461V24H61.4336ZM70.0586 24V11.5078H72.9766V24H70.0586ZM71.5234 9.65625C71.0625 9.65625 70.6719 9.5 70.3516 9.1875C70.0312 8.86719 69.8711 8.48438 69.8711 8.03906C69.8711 7.59375 70.0312 7.21484 70.3516 6.90234C70.6719 6.58203 71.0625 6.42188 71.5234 6.42188C71.9844 6.42188 72.3711 6.58203 72.6836 6.90234C73.0039 7.21484 73.1641 7.59375 73.1641 8.03906C73.1641 8.48438 73.0039 8.86719 72.6836 9.1875C72.3711 9.5 71.9844 9.65625 71.5234 9.65625ZM75.6602 24V11.5078H78.5664V13.4531H78.6602C78.9805 12.7812 79.457 12.2461 80.0898 11.8477C80.7227 11.4492 81.5078 11.25 82.4453 11.25C83.8203 11.25 84.8828 11.6641 85.6328 12.4922C86.3828 13.3203 86.7578 14.4609 86.7578 15.9141V24H83.8398V16.5234C83.8398 15.6172 83.6328 14.9219 83.2188 14.4375C82.8047 13.9531 82.1758 13.7109 81.332 13.7109C80.7695 13.7109 80.2812 13.8398 79.8672 14.0977C79.4531 14.3477 79.1328 14.6992 78.9062 15.1523C78.6797 15.6055 78.5664 16.1367 78.5664 16.7461V24H75.6602ZM94.8672 28.3828C93.7656 28.3828 92.8047 28.2305 91.9844 27.9258C91.1719 27.6211 90.5234 27.207 90.0391 26.6836C89.5547 26.1602 89.2578 25.5664 89.1484 24.9023L89.1367 24.8086H92.0078L92.043 24.8906C92.1914 25.2578 92.5078 25.5625 92.9922 25.8047C93.4766 26.0469 94.1016 26.168 94.8672 26.168C95.8281 26.168 96.5664 25.9336 97.082 25.4648C97.5977 25.0039 97.8555 24.3789 97.8555 23.5898V21.668H97.7617C97.5352 22.1211 97.2305 22.5078 96.8477 22.8281C96.4648 23.1484 96.0234 23.3984 95.5234 23.5781C95.0234 23.75 94.4766 23.8359 93.8828 23.8359C92.8359 23.8359 91.9258 23.582 91.1523 23.0742C90.3789 22.5664 89.7812 21.8477 89.3594 20.918C88.9453 19.9805 88.7383 18.875 88.7383 17.6016V17.5898C88.7383 16.293 88.9492 15.1719 89.3711 14.2266C89.8008 13.2812 90.4023 12.5508 91.1758 12.0352C91.957 11.5195 92.875 11.2617 93.9297 11.2617C94.5234 11.2617 95.0625 11.3594 95.5469 11.5547C96.0391 11.75 96.4727 12.0234 96.8477 12.375C97.2227 12.7266 97.5312 13.1406 97.7734 13.6172H97.8438V11.5078H100.762V23.6602C100.762 24.6055 100.52 25.4297 100.035 26.1328C99.5586 26.8438 98.8789 27.3945 97.9961 27.7852C97.1133 28.1836 96.0703 28.3828 94.8672 28.3828ZM94.7969 21.5742C95.4141 21.5742 95.9531 21.4141 96.4141 21.0938C96.875 20.7656 97.2305 20.3086 97.4805 19.7227C97.7383 19.1289 97.8672 18.4375 97.8672 17.6484V17.625C97.8672 16.8359 97.7383 16.1484 97.4805 15.5625C97.2227 14.9766 96.8633 14.5234 96.4023 14.2031C95.9492 13.875 95.4141 13.7109 94.7969 13.7109C94.1641 13.7109 93.6133 13.8711 93.1445 14.1914C92.6836 14.5117 92.3281 14.9648 92.0781 15.5508C91.8281 16.1367 91.7031 16.8281 91.7031 17.625V17.6367C91.7031 18.4414 91.8281 19.1406 92.0781 19.7344C92.3281 20.3203 92.6836 20.7734 93.1445 21.0938C93.6133 21.4141 94.1641 21.5742 94.7969 21.5742ZM105.168 18.4102V15.9727H109.469C110.562 15.9727 111.406 15.6953 112 15.1406C112.602 14.5781 112.902 13.7891 112.902 12.7734V12.75C112.902 11.7266 112.602 10.9375 112 10.3828C111.406 9.82812 110.562 9.55078 109.469 9.55078H105.168V7.08984H110.219C111.359 7.08984 112.359 7.32422 113.219 7.79297C114.086 8.26172 114.762 8.92188 115.246 9.77344C115.73 10.6172 115.973 11.6055 115.973 12.7383V12.7617C115.973 13.8867 115.73 14.875 115.246 15.7266C114.762 16.5703 114.086 17.2305 113.219 17.707C112.359 18.1758 111.359 18.4102 110.219 18.4102H105.168ZM103.668 24V7.08984H106.68V24H103.668ZM118.176 24V6.9375H121.094V24H118.176ZM127.445 24.2109C126.617 24.2109 125.891 24.0547 125.266 23.7422C124.641 23.4219 124.152 22.9805 123.801 22.418C123.449 21.8477 123.273 21.1914 123.273 20.4492V20.4258C123.273 19.6836 123.457 19.0469 123.824 18.5156C124.199 17.9766 124.738 17.5547 125.441 17.25C126.152 16.9375 127.008 16.75 128.008 16.6875L132.766 16.4062V18.3281L128.43 18.6094C127.695 18.6484 127.133 18.8164 126.742 19.1133C126.359 19.4102 126.168 19.8086 126.168 20.3086V20.332C126.168 20.8398 126.363 21.2422 126.754 21.5391C127.152 21.8359 127.672 21.9844 128.312 21.9844C128.875 21.9844 129.379 21.8711 129.824 21.6445C130.27 21.418 130.621 21.1094 130.879 20.7188C131.137 20.3203 131.266 19.875 131.266 19.3828V15.5859C131.266 14.9609 131.066 14.4727 130.668 14.1211C130.277 13.7617 129.707 13.582 128.957 13.582C128.27 13.582 127.719 13.7227 127.305 14.0039C126.891 14.2773 126.629 14.6406 126.52 15.0938L126.496 15.1875H123.789L123.801 15.0586C123.871 14.3242 124.121 13.6719 124.551 13.1016C124.988 12.5312 125.59 12.082 126.355 11.7539C127.121 11.418 128.023 11.25 129.062 11.25C130.117 11.25 131.023 11.4219 131.781 11.7656C132.547 12.1094 133.137 12.5938 133.551 13.2188C133.973 13.8438 134.184 14.5781 134.184 15.4219V24H131.266V22.1133H131.184C130.949 22.543 130.641 22.918 130.258 23.2383C129.883 23.5508 129.457 23.793 128.98 23.9648C128.504 24.1289 127.992 24.2109 127.445 24.2109ZM141.426 24.2109C140.098 24.2109 139.117 23.9336 138.484 23.3789C137.859 22.8164 137.547 21.8984 137.547 20.625V13.7578H135.742V11.5078H137.547V8.35547H140.512V11.5078H142.891V13.7578H140.512V20.3086C140.512 20.9258 140.645 21.3555 140.91 21.5977C141.176 21.832 141.582 21.9492 142.129 21.9492C142.285 21.9492 142.422 21.9453 142.539 21.9375C142.656 21.9219 142.773 21.9102 142.891 21.9023V24.0938C142.711 24.125 142.496 24.1523 142.246 24.1758C141.996 24.1992 141.723 24.2109 141.426 24.2109ZM145.914 24V13.7578H144.145V11.5078H145.914V10.3008C145.914 9.48828 146.051 8.81641 146.324 8.28516C146.598 7.75391 147.02 7.35938 147.59 7.10156C148.168 6.83594 148.91 6.70312 149.816 6.70312C150.105 6.70312 150.391 6.71484 150.672 6.73828C150.953 6.76172 151.188 6.79297 151.375 6.83203V8.87109C151.258 8.84766 151.121 8.83203 150.965 8.82422C150.809 8.81641 150.645 8.8125 150.473 8.8125C149.887 8.8125 149.457 8.94922 149.184 9.22266C148.91 9.48828 148.773 9.88281 148.773 10.4062V11.5078H151.328V13.7578H148.832V24H145.914ZM158.02 24.2461C156.785 24.2461 155.715 23.9883 154.809 23.4727C153.91 22.9492 153.211 22.2031 152.711 21.2344C152.219 20.2578 151.973 19.0977 151.973 17.7539V17.7305C151.973 16.3945 152.223 15.2422 152.723 14.2734C153.223 13.3047 153.926 12.5586 154.832 12.0352C155.738 11.5117 156.797 11.25 158.008 11.25C159.227 11.25 160.289 11.5117 161.195 12.0352C162.102 12.5586 162.805 13.3047 163.305 14.2734C163.805 15.2344 164.055 16.3867 164.055 17.7305V17.7539C164.055 19.1055 163.805 20.2656 163.305 21.2344C162.812 22.2031 162.113 22.9492 161.207 23.4727C160.309 23.9883 159.246 24.2461 158.02 24.2461ZM158.02 21.8906C158.652 21.8906 159.195 21.7305 159.648 21.4102C160.102 21.082 160.453 20.6094 160.703 19.9922C160.953 19.375 161.078 18.6289 161.078 17.7539V17.7305C161.078 16.8633 160.953 16.125 160.703 15.5156C160.453 14.8984 160.098 14.4297 159.637 14.1094C159.176 13.7812 158.633 13.6172 158.008 13.6172C157.391 13.6172 156.852 13.7812 156.391 14.1094C155.93 14.4297 155.574 14.8984 155.324 15.5156C155.074 16.125 154.949 16.8633 154.949 17.7305V17.7539C154.949 18.6289 155.074 19.375 155.324 19.9922C155.574 20.6094 155.93 21.082 156.391 21.4102C156.852 21.7305 157.395 21.8906 158.02 21.8906ZM166.129 24V11.5078H169.035V13.6172H169.129C169.324 12.8828 169.676 12.3086 170.184 11.8945C170.691 11.4727 171.316 11.2617 172.059 11.2617C172.254 11.2617 172.434 11.2734 172.598 11.2969C172.77 11.3203 172.914 11.3477 173.031 11.3789V14.0156C172.891 13.9609 172.711 13.9219 172.492 13.8984C172.281 13.8672 172.051 13.8516 171.801 13.8516C171.23 13.8516 170.738 13.9648 170.324 14.1914C169.91 14.418 169.59 14.75 169.363 15.1875C169.145 15.6172 169.035 16.1367 169.035 16.7461V24H166.129ZM174.707 24V11.5078H177.613V13.5H177.707C177.973 12.8125 178.41 12.2656 179.02 11.8594C179.629 11.4531 180.344 11.25 181.164 11.25C181.742 11.25 182.262 11.3477 182.723 11.543C183.184 11.7383 183.578 12.0195 183.906 12.3867C184.234 12.7539 184.477 13.1992 184.633 13.7227H184.715C184.918 13.2148 185.207 12.7773 185.582 12.4102C185.965 12.043 186.41 11.7578 186.918 11.5547C187.434 11.3516 187.992 11.25 188.594 11.25C189.414 11.25 190.129 11.4258 190.738 11.7773C191.348 12.1211 191.82 12.6055 192.156 13.2305C192.492 13.8477 192.66 14.5781 192.66 15.4219V24H189.742V16.1367C189.742 15.6133 189.656 15.1719 189.484 14.8125C189.312 14.4531 189.059 14.1797 188.723 13.9922C188.395 13.8047 187.988 13.7109 187.504 13.7109C187.027 13.7109 186.609 13.8203 186.25 14.0391C185.891 14.2578 185.609 14.5586 185.406 14.9414C185.203 15.3242 185.102 15.7656 185.102 16.2656V24H182.254V15.9844C182.254 15.5156 182.164 15.1133 181.984 14.7773C181.805 14.4336 181.551 14.1719 181.223 13.9922C180.895 13.8047 180.5 13.7109 180.039 13.7109C179.562 13.7109 179.141 13.8281 178.773 14.0625C178.414 14.2891 178.129 14.6016 177.918 15C177.715 15.3984 177.613 15.8516 177.613 16.3594V24H174.707Z" fill="#14181B"/>
</g>
<defs>
<clipPath id="clip0_52_12">
<rect width="194" height="31" fill="white"/>
</clipPath>
</defs>
</svg>
